<svg xmlns="http://www.w3.org/2000/svg" viewBox="0 0 650.85 650.85"><defs><style>.cls-1{fill:#a87116;}.cls-2{fill:#fff;}</style></defs><g id="Layer_2" data-name="Layer 2"><g id="Layer_4" data-name="Layer 4"><circle class="cls-1" cx="325.42" cy="325.42" r="325.42"/><path class="cls-2" d="M283.41,472.65c-6.11,6-21.91,22.1-55.12,21.2-63.52-1.72-91.64-47.39-91.64-96.41,0-45.36,24.68-96.59,87.42-96.59s91,47,105.27,71.48,42,86.47,98.71,88.7c40.56,0,55.61-33.83,55.61-65.55s-12-61.74-57.73-66c-41.83-3.87-69.1,39.32-70.74,41.44s-5.49,3.28-7.05.23c-2.11-4.31-10.26-17.62-12.84-22-.37-.61-.63-1.32,1.88-4.38,26.57-32.49,52.18-46.71,85.38-45.81,63.52,1.71,91.64,47.38,91.64,96.41,0,45.36-24.67,96.58-87.42,96.58S326.68,433.11,316,411.23c-4.69-9.61-36.52-77.2-93.21-79.43-40.57,0-55.6,33.83-55.6,65.54s12,61.75,57.72,66c15.35,1.42,27.89-3.69,37.29-12.54l-9.48-8.85c-8.93-7.28,1.17-8.34,4.11-9.05s40.07-11,46.06-13,6.81,1.06,5.87,6.7-7.63,47.47-8.22,52.05-3.17,6.58-7.52,2.94C289.91,478.9,283.41,472.65,283.41,472.65Z"/><path class="cls-2" d="M196.7,106.78h12.09L218,163.57h-8.92l-1.62-11.27v.16H197.35l-1.63,11.11h-8.27Zm9.73,38-4-28.07h-.16l-3.9,28.07Z"/><path class="cls-2" d="M222.33,106.78h11.2l8.68,34h.16v-34h7.95v56.79h-9.17l-10.7-41.45h-.17v41.45h-7.95Z"/><path class="cls-2" d="M258.76,160.69q-3.33-3.69-3.33-10.58v-3.25h8.44v3.9q0,5.51,4.62,5.51a4.31,4.31,0,0,0,3.45-1.34,6.53,6.53,0,0,0,1.18-4.34,11.92,11.92,0,0,0-1.63-6.28,29.7,29.7,0,0,0-6-6.53,35.88,35.88,0,0,1-7.71-8.81,17.93,17.93,0,0,1-2.19-8.88q0-6.74,3.41-10.43t9.9-3.69q6.41,0,9.69,3.69t3.29,10.59v2.35h-8.44v-2.92a6.6,6.6,0,0,0-1.13-4.26,4.13,4.13,0,0,0-3.33-1.33c-3,0-4.46,1.81-4.46,5.43a10.68,10.68,0,0,0,1.66,5.76,31.61,31.61,0,0,0,6,6.49c3.74,3.25,6.3,6.2,7.71,8.84a19.61,19.61,0,0,1,2.11,9.33q0,7-3.45,10.71t-10,3.73C264.25,164.38,261,163.16,258.76,160.69Z"/><path class="cls-2" d="M284.8,106.78h9l5.85,44.06h.16l5.84-44.06h8.19l-8.6,56.79H293.4Z"/><path class="cls-2" d="M322.77,106.78h12.08l9.25,56.79h-8.92l-1.62-11.27v.16H323.41l-1.62,11.11h-8.27Zm9.73,38-4-28.07h-.17l-3.89,28.07Z"/><path class="cls-2" d="M348.4,106.78h13.22q6.9,0,10.06,3.21t3.17,9.86v3.48q0,8.85-5.84,11.2v.16a7,7,0,0,1,4.58,4,20.05,20.05,0,0,1,1.34,8v10a37.66,37.66,0,0,0,.16,3.93,10,10,0,0,0,.81,3h-9.08a12.12,12.12,0,0,1-.65-2.59,38,38,0,0,1-.17-4.38V146.21c0-2.59-.41-4.4-1.25-5.43s-2.29-1.54-4.34-1.54h-3.09v24.33H348.4Zm12.17,24.34a5.38,5.38,0,0,0,4-1.38c.89-.92,1.33-2.46,1.33-4.62v-4.38a7.2,7.2,0,0,0-1.09-4.46,4.14,4.14,0,0,0-3.45-1.38h-4.06v16.22Z"/><path class="cls-2" d="M381.09,106.78H390v48.68H404.7v8.11H381.09Z"/><path class="cls-2" d="M409,106.78h8.93v56.79H409Z"/><path class="cls-2" d="M427.34,160.69q-3.42-3.69-3.41-10.58V120.25q0-6.89,3.41-10.59t9.89-3.69q6.5,0,9.9,3.69t3.41,10.59v4.87H442.1v-5.44q0-5.59-4.62-5.59t-4.63,5.59v31.08q0,5.51,4.63,5.51t4.62-5.51V139.64h-4.46v-8.11h12.9v18.58q0,6.88-3.41,10.58c-2.27,2.47-5.57,3.69-9.9,3.69S429.61,163.16,427.34,160.69Z"/><path class="cls-2" d="M463.27,114.9h-9.33v-8.12h27.59v8.12H472.2v48.67h-8.93Z"/><path class="cls-2" d="M226.39,204.14H250v8.11H235.31v15.82h11.52v8.11H235.31v24.75h-8.92Z"/><path class="cls-2" d="M257.13,258q-3.48-3.73-3.48-10.55V217.6q0-6.81,3.48-10.54t10.06-3.73q6.58,0,10.06,3.73t3.49,10.54v29.86q0,6.81-3.49,10.55t-10.06,3.73Q260.62,261.74,257.13,258Zm14.69-10V217q0-5.59-4.63-5.6t-4.62,5.6v31q0,5.59,4.62,5.59T271.82,248Z"/><path class="cls-2" d="M286.75,204.14H300q6.9,0,10.06,3.2t3.16,9.86v3.49c0,5.89-1.94,9.63-5.84,11.19v.17a7,7,0,0,1,4.59,4,20.07,20.07,0,0,1,1.33,8v10a37.45,37.45,0,0,0,.17,3.94,9.48,9.48,0,0,0,.81,3h-9.09a13.53,13.53,0,0,1-.65-2.6,38.72,38.72,0,0,1-.16-4.38V243.57q0-3.9-1.26-5.44c-.84-1-2.28-1.54-4.34-1.54h-3.08v24.34h-8.92Zm12.16,24.34a5.35,5.35,0,0,0,4-1.38c.89-.92,1.34-2.46,1.34-4.63v-4.38a7.21,7.21,0,0,0-1.1-4.46,4.13,4.13,0,0,0-3.44-1.38h-4.06v16.23Z"/><path class="cls-2" d="M319.44,204.14h13.47q6.88,0,10.06,3.2t3.16,9.86v2.27a15.56,15.56,0,0,1-1.42,7.14,8.31,8.31,0,0,1-4.34,4v.17Q347,233,347,242.59v4.87q0,6.57-3.45,10t-10.1,3.45h-14Zm12.41,23.12a5.35,5.35,0,0,0,4-1.38c.89-.92,1.34-2.46,1.34-4.62v-3.17a7.21,7.21,0,0,0-1.1-4.46,4.14,4.14,0,0,0-3.45-1.38h-4.3v15Zm1.62,25.55a4.45,4.45,0,0,0,3.49-1.25c.76-.84,1.14-2.29,1.14-4.34v-4.95q0-3.9-1.34-5.4c-.89-1-2.37-1.5-4.42-1.5h-4v17.44Z"/><path class="cls-2" d="M352.21,204.14h13.23q6.88,0,10.06,3.2t3.16,9.86v3.49c0,5.89-2,9.63-5.84,11.19v.17a6.93,6.93,0,0,1,4.58,4,19.88,19.88,0,0,1,1.34,8v10a37.45,37.45,0,0,0,.17,3.94,9.48,9.48,0,0,0,.81,3h-9.09a13.53,13.53,0,0,1-.65-2.6,38.72,38.72,0,0,1-.16-4.38V243.57q0-3.9-1.26-5.44c-.84-1-2.28-1.54-4.34-1.54h-3.08v24.34h-8.93Zm12.17,24.34a5.35,5.35,0,0,0,4-1.38c.89-.92,1.34-2.46,1.34-4.63v-4.38a7.21,7.21,0,0,0-1.1-4.46,4.14,4.14,0,0,0-3.45-1.38h-4.05v16.23Z"/><path class="cls-2" d="M388,258.05q-3.4-3.69-3.41-10.59V204.14h8.93v44a6.22,6.22,0,0,0,1.17,4.22,5,5,0,0,0,6.74,0,6.22,6.22,0,0,0,1.17-4.22v-44h8.6v43.32q0,6.9-3.4,10.59t-9.9,3.69Q391.4,261.74,388,258.05Z"/><path class="cls-2" d="M420.28,258.05q-3.4-3.69-3.41-10.59V217.6q0-6.89,3.41-10.58t9.9-3.69q6.48,0,9.89,3.69t3.41,10.58v4.87H435V217q0-5.59-4.62-5.6T425.8,217v31.07c0,3.68,1.54,5.51,4.62,5.51s4.62-1.83,4.62-5.51V237h-4.46v-8.11h12.9v18.58q0,6.9-3.41,10.59t-9.89,3.69Q423.69,261.74,420.28,258.05Z"/></g></g></svg>