<svg xmlns="http://www.w3.org/2000/svg" viewBox="0 0 650.85 650.85"><defs><style>.cls-1{fill:#9f1b18;}.cls-2{fill:#fff;}</style></defs><g id="Layer_2" data-name="Layer 2"><g id="Layer_4" data-name="Layer 4"><circle class="cls-1" cx="325.42" cy="325.42" r="325.42"/><polygon class="cls-2" points="423.51 298.86 423.51 486.76 323.2 517.37 323.2 356.55 423.51 298.86"/><polygon class="cls-2" points="502.5 316.06 502.5 482.99 490.84 524.66 479.19 482.99 479.19 316.06 502.5 316.06"/><polygon class="cls-2" points="445.17 306.87 445.17 499.7 323.19 538.32 311.43 538.32 189.46 499.7 189.46 306.87 200.06 298.86 200.06 491.47 311.66 527.96 322.97 527.96 434.57 491.47 434.57 298.86 445.17 306.87"/><polygon class="cls-2" points="211.11 298.86 211.11 486.76 311.42 517.37 311.42 356.55 211.11 298.86"/><path class="cls-2" d="M486.43,281.2h8.82a7.24,7.24,0,0,1,7.24,7.24V307.1a0,0,0,0,1,0,0H479.19a0,0,0,0,1,0,0V288.45A7.24,7.24,0,0,1,486.43,281.2Z"/><path class="cls-2" d="M189.46,99.22h8.92v23.93l11.36-23.93h8.92L208,120.07,218.83,156H209.5L202,130.7l-3.57,7.22V156h-8.92Z"/><path class="cls-2" d="M220.69,99.22h9l5.84,44.05h.16l5.84-44.05h8.19L241.13,156H229.29Z"/><path class="cls-2" d="M258.66,99.22h12.09L280,156h-8.92l-1.62-11.28v.16H259.31L257.68,156h-8.27Zm9.73,38-4-28.07h-.16l-3.9,28.07Z"/><path class="cls-2" d="M284.29,99.22h8.93v48.67H307.9V156H284.29Z"/><path class="cls-2" d="M312.2,99.22h8.92V156H312.2Z"/><path class="cls-2" d="M334.75,107.33h-9.33V99.22H353v8.11h-9.33V156h-8.93Z"/><path class="cls-2" d="M357.31,99.22h24.33v8.11H366.23v15h12.25v8.11H366.23v17.44h15.41V156H357.31Z"/><path class="cls-2" d="M393.73,107.33H384.4V99.22H412v8.11h-9.33V156h-8.92Z"/><path class="cls-2" d="M418.07,153.13q-3.33-3.69-3.33-10.59V139.3h8.44v3.89q0,5.52,4.62,5.52a4.35,4.35,0,0,0,3.45-1.34,6.47,6.47,0,0,0,1.18-4.34,12,12,0,0,0-1.62-6.29,30.28,30.28,0,0,0-6-6.53,36,36,0,0,1-7.7-8.8,17.89,17.89,0,0,1-2.2-8.89q0-6.73,3.41-10.42t9.9-3.69q6.41,0,9.69,3.69t3.29,10.59V115h-8.44v-2.92a6.56,6.56,0,0,0-1.13-4.26,4.14,4.14,0,0,0-3.33-1.34q-4.46,0-4.46,5.44a10.73,10.73,0,0,0,1.66,5.76,32.24,32.24,0,0,0,6.05,6.49q5.59,4.86,7.7,8.84a19.58,19.58,0,0,1,2.11,9.33q0,7-3.45,10.71c-2.3,2.49-5.63,3.73-10,3.73S420.29,155.59,418.07,153.13Z"/><path class="cls-2" d="M444.84,123.56h17.85v8.11H444.84Z"/><path class="cls-2" d="M173.27,250.48q-3.41-3.69-3.4-10.59V196.57h8.92v44a6.15,6.15,0,0,0,1.18,4.22,5,5,0,0,0,6.73,0,6.2,6.2,0,0,0,1.18-4.22v-44h8.6v43.32q0,6.9-3.41,10.59t-9.9,3.69C178.84,254.17,175.55,252.94,173.27,250.48Z"/><path class="cls-2" d="M202.8,196.57h13.63q6.66,0,10,3.57t3.33,10.47v28.71q0,6.9-3.33,10.47t-10,3.57H202.8Zm13.47,48.68a4.31,4.31,0,0,0,3.37-1.3,6.22,6.22,0,0,0,1.17-4.22V210.2a6.22,6.22,0,0,0-1.17-4.22,4.35,4.35,0,0,0-3.37-1.3h-4.54v40.57Z"/><path class="cls-2" d="M235.74,196.57h13.63q6.64,0,10,3.57t3.32,10.47v28.71q0,6.9-3.32,10.47t-10,3.57H235.74Zm13.47,48.68a4.28,4.28,0,0,0,3.36-1.3,6.17,6.17,0,0,0,1.18-4.22V210.2a6.17,6.17,0,0,0-1.18-4.22,4.31,4.31,0,0,0-3.36-1.3h-4.55v40.57Z"/><path class="cls-2" d="M275.41,196.57H287.5l9.25,56.79h-8.93l-1.62-11.28v.17H276.06l-1.62,11.11h-8.28Zm9.74,38-4-28.07H281l-3.9,28.07Z"/><path class="cls-2" d="M301.05,196.57h11.19l8.68,34h.16v-34H329v56.79h-9.16L309.16,211.9H309v41.46h-7.95Z"/><path class="cls-2" d="M335.69,196.57h11.19l8.68,34h.16v-34h7.95v56.79h-9.16L343.8,211.9h-.16v41.46h-7.95Z"/><path class="cls-2" d="M370.33,196.57h24.33v8.11H379.25v15H391.5v8.11H379.25v17.45h15.41v8.11H370.33Z"/><path class="cls-2" d="M399.77,196.57h8.93v48.68h14.68v8.11H399.77Z"/><path class="cls-2" d="M429.47,250.48q-3.33-3.69-3.33-10.59v-3.24h8.44v3.89q0,5.52,4.62,5.52a4.36,4.36,0,0,0,3.45-1.34,6.53,6.53,0,0,0,1.18-4.34,12.05,12.05,0,0,0-1.63-6.29,29.92,29.92,0,0,0-6-6.53,35.87,35.87,0,0,1-7.71-8.8,17.93,17.93,0,0,1-2.19-8.88q0-6.74,3.41-10.43t9.9-3.69q6.4,0,9.69,3.69T452.59,210v2.35h-8.44v-2.92a6.5,6.5,0,0,0-1.14-4.26,4.1,4.1,0,0,0-3.32-1.34c-3,0-4.46,1.82-4.46,5.44a10.73,10.73,0,0,0,1.66,5.76,31.87,31.87,0,0,0,6,6.49c3.74,3.24,6.3,6.19,7.71,8.84a19.58,19.58,0,0,1,2.11,9.33q0,7-3.45,10.71t-10,3.73Q432.79,254.17,429.47,250.48Z"/><path class="cls-2" d="M457.86,196.57H482.2v8.11H466.78v15H479v8.11H466.78v17.45H482.2v8.11H457.86Z"/></g></g></svg>