<svg xmlns="http://www.w3.org/2000/svg" xmlns:xlink="http://www.w3.org/1999/xlink" viewBox="0 0 401.07 113.96"><defs><style>.cls-1{fill:none;}.cls-2{clip-path:url(#clip-path);}.cls-3{clip-path:url(#clip-path-2);}.cls-4{fill:#3ea635;}.cls-5{fill:#d6a102;}.cls-6{fill:#c11728;}.cls-7{fill:#289438;}.cls-8{fill:#4a7634;}.cls-9{fill:#fbb800;}.cls-10{fill:#e6331d;}.cls-11{fill:#f59d08;}.cls-12{fill:#0076b8;}.cls-13{fill:#931831;}.cls-14{fill:#00a7d7;}.cls-15{fill:#ec6411;}.cls-16{fill:#e2071f;}.cls-17{fill:#dd0979;}.cls-18{fill:#1f3262;}.cls-19{fill:#d28d0e;}.cls-20{fill:#004c84;}.cls-21{fill:#1d1d1b;}</style><clipPath id="clip-path" transform="translate(-1.34 -0.53)"><rect class="cls-1" width="116.49" height="115.76"/></clipPath><clipPath id="clip-path-2" transform="translate(-1.34 -0.53)"><rect class="cls-1" x="-33.81" y="-34.61" width="467.72" height="184.25"/></clipPath></defs><g id="Layer_2" data-name="Layer 2"><g id="Layer_4" data-name="Layer 4"><g class="cls-2"><g class="cls-3"><g class="cls-3"><path class="cls-4" d="M30.61,41.25a32.92,32.92,0,0,1,5.11-6.57L19,16.32A57.28,57.28,0,0,0,8.34,30.16Z" transform="translate(-1.34 -0.53)"/><path class="cls-5" d="M71.67,28.28a31.88,31.88,0,0,1,7,4.4L95.48,14.34A57.29,57.29,0,0,0,80.6,5.05Z" transform="translate(-1.34 -0.53)"/><path class="cls-6" d="M110.13,33.8,87.87,44.9a32,32,0,0,1,2.23,7.87l24.76-2.34a56.35,56.35,0,0,0-4.73-16.63" transform="translate(-1.34 -0.53)"/><path class="cls-7" d="M86.27,41.68l22.26-11.09a57.06,57.06,0,0,0-10.4-13.81L81.33,35.11a32,32,0,0,1,4.94,6.57" transform="translate(-1.34 -0.53)"/><path class="cls-8" d="M26.19,57.5c0-.5,0-1,0-1.5L1.46,53.79c-.08,1.22-.12,2.46-.12,3.71A57.4,57.4,0,0,0,3,71.28l23.92-6.86a32.18,32.18,0,0,1-.75-6.92" transform="translate(-1.34 -0.53)"/><path class="cls-9" d="M83.16,77.86a32.57,32.57,0,0,1-6,5.69l13.07,21.17A57.47,57.47,0,0,0,103,92.83Z" transform="translate(-1.34 -0.53)"/><path class="cls-10" d="M90.44,57.5a32.14,32.14,0,0,1-.73,6.84l23.91,6.87A56.33,56.33,0,0,0,115.3,57.5c0-1.17,0-2.33-.11-3.5L90.42,56.34c0,.39,0,.78,0,1.16" transform="translate(-1.34 -0.53)"/><path class="cls-11" d="M33.88,78.34l-19.79,15A57.43,57.43,0,0,0,27,105.1L40.09,83.94a32.43,32.43,0,0,1-6.21-5.6" transform="translate(-1.34 -0.53)"/><path class="cls-12" d="M26.59,52.43a31.59,31.59,0,0,1,2.37-8L6.71,33.36A57,57,0,0,0,1.8,50.21Z" transform="translate(-1.34 -0.53)"/><path class="cls-13" d="M87.15,106.64,74.09,85.49a32,32,0,0,1-7.62,3.1l4.61,24.46a56.89,56.89,0,0,0,16.07-6.41" transform="translate(-1.34 -0.53)"/><path class="cls-14" d="M88.75,67.8A31.61,31.61,0,0,1,85.28,75l19.86,15a56.84,56.84,0,0,0,7.51-15.27Z" transform="translate(-1.34 -0.53)"/><path class="cls-15" d="M63,89.3a32.14,32.14,0,0,1-4.63.34,32.81,32.81,0,0,1-3.74-.22L50,113.88a57.37,57.37,0,0,0,17.59-.14Z" transform="translate(-1.34 -0.53)"/><path class="cls-16" d="M60.37,25.43A32.09,32.09,0,0,1,68.32,27L77.25,3.75A56.52,56.52,0,0,0,60.37.55Z" transform="translate(-1.34 -0.53)"/><path class="cls-17" d="M51,88.8a31.49,31.49,0,0,1-7.89-3L30.07,107a56.59,56.59,0,0,0,16.36,6.25Z" transform="translate(-1.34 -0.53)"/><path class="cls-18" d="M48.66,26.85a32,32,0,0,1,8.12-1.44V.53A56.66,56.66,0,0,0,39.67,3.65Z" transform="translate(-1.34 -0.53)"/><path class="cls-19" d="M31.7,75.48a32.14,32.14,0,0,1-3.79-7.6L4,74.74A57,57,0,0,0,11.9,90.53Z" transform="translate(-1.34 -0.53)"/><path class="cls-20" d="M38.41,32.3a31.72,31.72,0,0,1,6.89-4.17l-9-23.19a56.84,56.84,0,0,0-14.66,9Z" transform="translate(-1.34 -0.53)"/><polygon class="cls-21" points="148.08 23.45 143.43 50.97 143.37 50.97 138.84 23.45 132.09 23.45 139.59 62.89 146.81 62.89 154.31 23.45 148.08 23.45"/><polygon class="cls-21" points="155.88 62.89 171.7 62.89 171.7 57.48 162.51 57.48 162.51 45.5 169.08 45.5 169.08 40.15 162.51 40.15 162.51 28.86 171.7 28.86 171.7 23.45 155.88 23.45 155.88 62.89"/><path class="cls-21" d="M185.43,29.4c2.27,0,3.26,1,3.26,3.2v5.81c0,2.1-1,3.26-3.26,3.26h-2.21V29.4Zm4,34h7l-6.34-17.91c3.78-.87,5.3-3.37,5.3-7.62V32.83c0-5.53-2.45-8.84-9.14-8.84h-9.65V63.42h6.63V45.34Z" transform="translate(-1.34 -0.53)"/><path class="cls-21" d="M209.22,24H199V63.42h10.24c7.1,0,9.6-4.53,9.6-10.58V34.57c0-6.11-2.5-10.58-9.6-10.58m-3.61,34V29.4h2.8c2.73,0,3.78,1.62,3.78,4V54c0,2.39-1.05,4-3.78,4Z" transform="translate(-1.34 -0.53)"/><polygon class="cls-21" points="221.26 62.89 237.08 62.89 237.08 57.48 227.89 57.48 227.89 45.5 234.47 45.5 234.47 40.15 227.89 40.15 227.89 28.86 237.08 28.86 237.08 23.45 221.26 23.45 221.26 62.89"/><polygon class="cls-21" points="254.01 62.89 259.83 62.89 259.83 23.45 254.3 23.45 254.3 46.08 247.15 23.45 240.63 23.45 240.63 62.89 246.22 62.89 246.22 38.11 254.01 62.89"/><path class="cls-21" d="M274,63.89c6.75,0,9.66-3.84,9.66-9.25V52.72c0-4.36-1.75-6.57-5.36-10.24L274,38.3c-1.92-1.87-3.14-3.14-3.14-5.35v-.82A2.91,2.91,0,0,1,274,28.87c2.13,0,3.2,1.11,3.2,3.38v3.43h6v-3.2c0-5.7-2.64-9-9.31-9-6.46,0-9.31,3.78-9.31,8.67v1.34c0,4.53,1.75,6.8,5.53,10.53l3.9,3.89c2,1.92,3,3.32,3,5.59v1.51c0,2.09-.93,3.49-3,3.49-2.27,0-3.26-1.28-3.26-3.49V49.64h-6.17v5.29c0,5.18,2.62,9,9.37,9" transform="translate(-1.34 -0.53)"/><polygon class="cls-21" points="304.04 62.89 310.08 62.89 310.08 23.45 301.71 23.45 297.87 45.67 297.81 45.67 293.5 23.45 285.77 23.45 285.77 62.89 291.24 62.89 291.24 37.3 291.35 37.3 296.3 62.89 299.38 62.89 303.86 37.3 304.04 37.3 304.04 62.89"/><path class="cls-21" d="M323.52,18.87a1.81,1.81,0,1,1,3.61,0,1.81,1.81,0,1,1-3.61,0m1.57,16.23h.06l2.62,15.82h-5.3Zm-4.24-16.23a4.35,4.35,0,0,0,4.47,4.36,4.36,4.36,0,1,0-4.47-4.36m-.41,44.55,1.16-7.21h7l1.22,7.21h6.81L329.16,24H321.6l-7.45,39.43Z" transform="translate(-1.34 -0.53)"/><polygon class="cls-21" points="338.06 62.89 352.6 62.89 352.6 57.48 344.69 57.48 344.69 23.45 338.06 23.45 338.06 62.89"/><path class="cls-21" d="M142.67,72.17a7.2,7.2,0,0,0-1.85-.21c-1.71,0-3,.61-3,2.32v2.89H142v1.46h-4.2V90.38h-1.77V78.63h-2.63v-.82l2.63-.77V74.28c0-2.53,1.46-4,4.76-4a8.85,8.85,0,0,1,1.85.17Z" transform="translate(-1.34 -0.53)"/><path class="cls-21" d="M149.28,90.67c-4.53,0-5.56-2.82-5.56-6.87s1.05-6.87,5.56-6.87,5.55,2.83,5.55,6.87-1,6.87-5.55,6.87m0-12.1c-3.49,0-3.7,2.24-3.7,5.24s.21,5.25,3.7,5.25S153,86.82,153,83.81s-.26-5.24-3.69-5.24" transform="translate(-1.34 -0.53)"/><path class="cls-21" d="M165.26,78.77a5.62,5.62,0,0,0-1.58-.2,7.09,7.09,0,0,0-3.83.85v11H158V77.17h1.05l.4,1.11a7.12,7.12,0,0,1,4.25-1.37,9.27,9.27,0,0,1,1.58.13Z" transform="translate(-1.34 -0.53)"/><path class="cls-21" d="M183,83.8c0,3.8-1.16,6.87-5.41,6.87a7.63,7.63,0,0,1-4.13-1.34l-.4,1h-1V70.59h1.86V78a6.91,6.91,0,0,1,3.7-1.05c4.3,0,5.43,3,5.43,6.84m-9.11-4.38v8.77a6.91,6.91,0,0,0,3.7.84c3.15,0,3.57-2.61,3.57-5.25s-.4-5.25-3.57-5.25a6.94,6.94,0,0,0-3.67.89Z" transform="translate(-1.34 -0.53)"/><path class="cls-21" d="M191.07,78.57a12.46,12.46,0,0,0-4.19.66V77.64a11.51,11.51,0,0,1,4.19-.71c2.52,0,4,.69,4.69,1.82a5,5,0,0,1,4.33-1.82c4.49,0,5,3.06,5,6.87v.72h-8.72v.15c.11,2.3.71,4.39,3.7,4.39a10.15,10.15,0,0,0,4.36-.73v1.58a10.51,10.51,0,0,1-4.36.79,5,5,0,0,1-4.3-1.8l-.83.65a7.17,7.17,0,0,1-4.2,1.15c-3.57,0-5-1.74-5-4,0-2,1-3.69,4.87-3.69h3.93V81.37c0-2-.95-2.8-3.49-2.8m-.52,5.92c-2.25,0-2.85.9-2.85,2.19s.58,2.35,3.14,2.35a6.16,6.16,0,0,0,3.73-1.18l.45-.4a10.86,10.86,0,0,1-.46-2.93Zm5.84-1.5h6.87c0-2.28-.21-4.42-3.15-4.42s-3.61,2.11-3.72,4.42" transform="translate(-1.34 -0.53)"/><path class="cls-21" d="M215.55,78.77a5.27,5.27,0,0,0-1.58-.2,7.09,7.09,0,0,0-3.83.85v11h-1.85V77.17h1.05l.4,1.11A7.12,7.12,0,0,1,214,76.91a9.27,9.27,0,0,1,1.58.13Z" transform="translate(-1.34 -0.53)"/><path class="cls-21" d="M223.15,76.93c4.49,0,5,3.06,5,6.87v.84h-8.72c.1,2.3.71,4.39,3.69,4.39a10.2,10.2,0,0,0,4.37-.73v1.58a10.72,10.72,0,0,1-4.37.79c-4.46,0-5.54-3.07-5.54-6.87s1.09-6.87,5.54-6.87m-3.69,6.21h6.87c0-2.35-.13-4.57-3.15-4.57s-3.65,2.19-3.72,4.57" transform="translate(-1.34 -0.53)"/><path class="cls-21" d="M240.2,78V70.59h1.85V90.41H241l-.4-1a7.57,7.57,0,0,1-4.12,1.34c-4.26,0-5.42-3.06-5.42-6.87S232.22,77,236.48,77A7,7,0,0,1,240.2,78m-7.26,5.79c0,2.62.39,5.25,3.57,5.25a6.89,6.89,0,0,0,3.69-.84V79.44a6.9,6.9,0,0,0-3.69-.85c-3.18,0-3.57,2.6-3.57,5.21" transform="translate(-1.34 -0.53)"/><polygon class="cls-21" points="245.06 76.64 248.77 87.48 252.47 76.64 254.58 76.64 246.97 96.47 244.98 96.47 247.96 89.52 242.96 76.64 245.06 76.64"/><path class="cls-21" d="M261.1,86.71a1.55,1.55,0,0,0-.5,1c0,.66.31,1,1,1l4.49.52c2.49.28,3.62,1.25,3.62,3.55,0,3.22-3.22,4.49-6.88,4.49s-5.92-1-5.92-4a3.71,3.71,0,0,1,2.68-3.54,2,2,0,0,1-.85-1.75,2.37,2.37,0,0,1,1-1.8c-1.58-.87-2.1-2.48-2.1-4.33,0-2.72,1.17-5,5.15-5a8.69,8.69,0,0,1,2.1.26h4.5v1l-2.23.63a5.55,5.55,0,0,1,.77,3.08c0,2.71-1.16,5-5.16,5a8.13,8.13,0,0,1-1.77-.19m.77,3.57c-1.75.39-3.23,1.21-3.23,2.91,0,2,1.48,2.51,4.2,2.51S268,95,268,92.79c0-1.35-.65-1.88-2.25-2.1Zm4.41-8.4c0-1.75-.34-3.35-3.44-3.35s-3.43,1.6-3.43,3.35.35,3.35,3.43,3.35,3.44-1.58,3.44-3.33Z" transform="translate(-1.34 -0.53)"/><path class="cls-21" d="M278.53,90.56a5.19,5.19,0,0,1-1.18.11c-2.2,0-4.2-1-4.2-3.59v-8.4h-2.7v-.82l2.65-.76V73.49l1.84-.52v4.2H279v1.46h-4.1v8.22c0,1.6.88,2.27,2.54,2.27a6.22,6.22,0,0,0,1-.06Z" transform="translate(-1.34 -0.53)"/><path class="cls-21" d="M282.87,71.92a1.33,1.33,0,1,1-1.32,1.32,1.3,1.3,0,0,1,1.28-1.32ZM282,87.77V77.17h1.8V88c0,.92.3,1.19,1.12,1.19v1.5c-1.92,0-2.92-.79-2.92-2.91Z" transform="translate(-1.34 -0.53)"/><path class="cls-21" d="M290.83,86.71a1.5,1.5,0,0,0-.51,1c0,.66.32,1,1.05,1l4.49.52c2.49.28,3.63,1.25,3.63,3.55,0,3.22-3.23,4.49-6.88,4.49s-5.92-1-5.92-4a3.69,3.69,0,0,1,2.73-3.49,1.94,1.94,0,0,1-.85-1.74,2.38,2.38,0,0,1,1.05-1.81c-1.6-.87-2.1-2.48-2.1-4.32,0-2.73,1.17-5,5.15-5a8.69,8.69,0,0,1,2.1.26h4.5v1l-2.23.63a5.55,5.55,0,0,1,.77,3.08c0,2.72-1.17,5-5.16,5a8.58,8.58,0,0,1-1.82-.25m.76,3.57c-1.74.39-3.22,1.21-3.22,2.91,0,2,1.48,2.51,4.2,2.51s5.13-.66,5.13-2.91c0-1.35-.64-1.88-2.25-2.1Zm4.41-8.4c0-1.75-.33-3.35-3.43-3.35s-3.43,1.6-3.43,3.35.34,3.35,3.43,3.35S296,83.65,296,81.9Z" transform="translate(-1.34 -0.53)"/><path class="cls-21" d="M307.58,86.79c0,1.72,1.05,2.24,2.64,2.24a6.36,6.36,0,0,0,3.57-.84v-11h1.85V90.38h-1.05l-.4-1.11a6.54,6.54,0,0,1-4,1.38c-3.14,0-4.49-1.43-4.49-4V77.17h1.85Z" transform="translate(-1.34 -0.53)"/><path class="cls-21" d="M327.92,78V70.59h1.86V90.41h-1l-.39-1a7.6,7.6,0,0,1-4.12,1.34c-4.27,0-5.42-3.06-5.42-6.87S320,77,324.22,77a6.91,6.91,0,0,1,3.7,1.05m-7.26,5.79c0,2.62.4,5.25,3.57,5.25a6.89,6.89,0,0,0,3.69-.84V79.44a6.81,6.81,0,0,0-3.69-.85c-3.17,0-3.57,2.6-3.57,5.21" transform="translate(-1.34 -0.53)"/><polygon class="cls-21" points="332.71 76.64 336.49 87.48 340.27 76.64 342.28 76.64 337.12 90.12 335.8 90.12 330.73 76.64 332.71 76.64"/><path class="cls-21" d="M347.21,71.92a1.33,1.33,0,1,1-1.32,1.32,1.32,1.32,0,0,1,1.32-1.32Zm-.9,15.85V77.17h1.8V88c0,.92.29,1.19,1.11,1.19v1.5c-1.9,0-2.91-.79-2.91-2.91Z" transform="translate(-1.34 -0.53)"/><polygon class="cls-21" points="355.47 82.11 361.87 89.87 359.56 89.87 354.32 83.17 352.65 84.75 352.65 89.87 350.85 89.87 350.85 70.05 352.65 70.05 352.65 82.58 358.62 76.66 361.17 76.66 355.47 82.11"/><path class="cls-21" d="M365.34,87.76V70.59h1.8V88c0,.93.29,1.19,1.11,1.19v1.5c-1.91,0-2.91-.79-2.91-2.91" transform="translate(-1.34 -0.53)"/><path class="cls-21" d="M372.58,71.92a1.33,1.33,0,1,1-1.32,1.34v0a1.31,1.31,0,0,1,1.28-1.32Zm-.9,15.85V77.17h1.8V88c0,.92.29,1.19,1.11,1.19v1.5c-1.9,0-2.91-.79-2.91-2.91Z" transform="translate(-1.34 -0.53)"/><path class="cls-21" d="M385.65,80.81c0-1.71-1-2.24-2.63-2.24a6.21,6.21,0,0,0-3.57.85v11H377.6V77.17h1l.4,1.11a6.62,6.62,0,0,1,4-1.37c3.15,0,4.49,1.43,4.49,4v9.51h-1.85Z" transform="translate(-1.34 -0.53)"/><path class="cls-21" d="M393.75,86.71a1.5,1.5,0,0,0-.51,1c0,.66.32,1,1.05,1l4.51.52c2.47.28,3.61,1.25,3.61,3.55,0,3.22-3.22,4.49-6.87,4.49s-5.92-1-5.92-4a3.7,3.7,0,0,1,2.72-3.49,1.94,1.94,0,0,1-.84-1.74,2.39,2.39,0,0,1,1-1.81c-1.59-.87-2.1-2.48-2.1-4.32,0-2.73,1.16-5,5.15-5a8.69,8.69,0,0,1,2.1.26h4.5v1l-2.22.63A5.55,5.55,0,0,1,400.7,82c0,2.72-1.17,5-5.16,5a8.3,8.3,0,0,1-1.79-.25m.76,3.57c-1.74.39-3.22,1.21-3.22,2.91,0,2,1.48,2.51,4.2,2.51s5.12-.66,5.12-2.91c0-1.35-.63-1.88-2.24-2.1Zm4.41-8.4c0-1.75-.34-3.35-3.43-3.35s-3.43,1.6-3.43,3.35.33,3.35,3.43,3.35,3.43-1.58,3.43-3.33Z" transform="translate(-1.34 -0.53)"/></g></g></g></g></g></svg>