<svg xmlns="http://www.w3.org/2000/svg" viewBox="0 0 235.12 121.41"><defs><style>.cls-1{fill:#fff;}</style></defs><g id="Layer_2" data-name="Layer 2"><g id="Layer_4" data-name="Layer 4"><path class="cls-1" d="M91.4,108.18c-3.81,3.74-13.65,13.76-34.33,13.21C17.51,120.31,0,91.87,0,61.34,0,33.09,15.37,1.19,54.44,1.19S111.12,30.48,120,45.7s26.16,53.85,61.47,55.24c25.26,0,34.63-21.07,34.63-40.82S208.64,21.67,180.15,19c-26.05-2.4-43,24.49-44.05,25.81s-3.42,2-4.39.14c-1.32-2.68-6.39-11-8-13.71-.23-.37-.39-.82,1.17-2.73C141.43,8.32,157.38-.54,178.05,0c39.56,1.07,57.07,29.51,57.07,60,0,28.25-15.36,60.15-54.44,60.15s-62.34-36.65-69-50.28c-2.92-6-22.74-48.08-58-49.47C28.39,20.46,19,41.53,19,61.28S26.49,99.73,55,102.37A29,29,0,0,0,78.2,94.56l-5.91-5.51c-5.56-4.54.74-5.2,2.57-5.64s25-6.88,28.68-8.12,4.24.66,3.66,4.17-4.76,29.56-5.13,32.41-2,4.1-4.68,1.83C95.44,112.07,91.4,108.18,91.4,108.18Z"/></g></g></svg>