<svg xmlns="http://www.w3.org/2000/svg" viewBox="0 0 194.56 159.8"><defs><style>.cls-1{fill:#fff;}</style></defs><g id="Layer_2" data-name="Layer 2"><g id="Layer_4" data-name="Layer 4"><polygon class="cls-1" points="145.47 10.98 145.47 127.76 83.13 146.78 83.13 46.83 145.47 10.98"/><polygon class="cls-1" points="194.56 21.66 194.56 125.41 187.31 151.31 180.07 125.41 180.07 21.66 194.56 21.66"/><polygon class="cls-1" points="158.93 15.95 158.93 135.8 83.12 159.8 75.81 159.8 0 135.8 0 15.95 6.59 10.97 6.59 130.68 75.95 153.36 82.98 153.36 152.34 130.68 152.34 10.97 158.93 15.95"/><polygon class="cls-1" points="13.46 10.98 13.46 127.76 75.8 146.78 75.8 46.83 13.46 10.98"/><path class="cls-1" d="M187.32,0h0a7.24,7.24,0,0,1,7.24,7.24V16.1a0,0,0,0,1,0,0H180.07a0,0,0,0,1,0,0V7.24A7.24,7.24,0,0,1,187.32,0Z"/></g></g></svg>